<svg id="visual" viewBox="0 0 900 600" width="900" height="600" xmlns="http://www.w3.org/2000/svg" xmlns:xlink="http://www.w3.org/1999/xlink" version="1.1"><path d="M545 600L544 600L544 514L489 514L489 429L533 429L533 343L498 343L498 257L450 257L450 171L535 171L535 86L397 86L397 0L900 0L900 86L900 86L900 171L900 171L900 257L900 257L900 343L900 343L900 429L900 429L900 514L900 514L900 600L900 600Z" fill="#aadeef"></path><path d="M569 600L546 600L546 514L583 514L583 429L572 429L572 343L636 343L636 257L612 257L612 171L623 171L623 86L656 86L656 0L900 0L900 86L900 86L900 171L900 171L900 257L900 257L900 343L900 343L900 429L900 429L900 514L900 514L900 600L900 600Z" fill="#8eecce"></path><path d="M747 600L806 600L806 514L678 514L678 429L695 429L695 343L716 343L716 257L672 257L672 171L757 171L757 86L708 86L708 0L900 0L900 86L900 86L900 171L900 171L900 257L900 257L900 343L900 343L900 429L900 429L900 514L900 514L900 600L900 600Z" fill="#d5e783"></path></svg>